<svg style="position: absolute; top: 10px; left: 10px" width="22" height="75"
    viewBox="0 0 22 75" fill="none" xmlns="http://www.w3.org/2000/svg">
    <circle cx="12" cy="10" r="10" fill="#26235C" />
    <path
        d="M0 72.2158L2.83209 71.083C3.37839 71.7232 3.87539 72.2652 5.06758 72.2652C6.21034 72.2652 6.93083 71.9696 6.93083 70.8204L10.4088 63.0033V70.8529C10.4088 73.234 8.2975 74.3179 5.21677 74.3179C2.43455 74.3179 0.819516 73.3654 0 72.2158Z"
        fill="#F7DF1E" />
    <path
        d="M8.77282 62.7458C9.73088 62.7458 10.5075 62.243 10.5075 61.6229C10.5075 61.0027 9.73088 60.5 8.77282 60.5C7.81475 60.5 7.03809 61.0027 7.03809 61.6229C7.03809 62.243 7.81475 62.7458 8.77282 62.7458Z"
        fill="#F7DF1E" />
    <path
        d="M21.6834 64.9432L18.8511 66.076C18.3048 65.4357 17.8077 64.8938 16.6155 64.8938C15.4729 64.8938 14.7523 65.1893 14.7523 66.3387L11.2744 74.1557V66.3063C11.2744 63.9252 13.3857 62.8413 16.4665 62.8413C19.2484 62.8413 20.8634 63.7938 21.6831 64.9434"
        fill="#F7DF1E" />
</svg>