<svg width="79" height="15" viewBox="0 0 79 15" fill="none" xmlns="http://www.w3.org/2000/svg">
<path d="M7.08203 0.682129C7.24609 0.354004 7.51042 0.189941 7.875 0.189941C8.23958 0.189941 8.50391 0.354004 8.66797 0.682129L10.4453 4.2915L14.4375 4.89307C14.8021 4.92952 15.0391 5.12093 15.1484 5.46729C15.2578 5.81364 15.1849 6.11442 14.9297 6.36963L12.0312 9.18604L12.7148 13.1782C12.7695 13.5246 12.651 13.798 12.3594 13.9985C12.0677 14.2173 11.7669 14.2446 11.457 14.0806L7.875 12.2212L4.29297 14.0806C3.98307 14.2629 3.68229 14.2446 3.39062 14.0259C3.09896 13.8071 2.98047 13.5246 3.03516 13.1782L3.71875 9.18604L0.820312 6.36963C0.565104 6.11442 0.492188 5.81364 0.601562 5.46729C0.710938 5.12093 0.947917 4.92952 1.3125 4.89307L5.30469 4.2915L7.08203 0.682129ZM22.832 0.682129C22.9961 0.354004 23.2604 0.189941 23.625 0.189941C23.9896 0.189941 24.2539 0.354004 24.418 0.682129L26.1953 4.2915L30.1875 4.89307C30.5521 4.92952 30.7891 5.12093 30.8984 5.46729C31.0078 5.81364 30.9349 6.11442 30.6797 6.36963L27.7812 9.18604L28.4648 13.1782C28.5195 13.5246 28.401 13.798 28.1094 13.9985C27.8177 14.2173 27.5169 14.2446 27.207 14.0806L23.625 12.2212L20.043 14.0806C19.7331 14.2629 19.4323 14.2446 19.1406 14.0259C18.849 13.8071 18.7305 13.5246 18.7852 13.1782L19.4688 9.18604L16.5703 6.36963C16.3151 6.11442 16.2422 5.81364 16.3516 5.46729C16.4609 5.12093 16.6979 4.92952 17.0625 4.89307L21.0547 4.2915L22.832 0.682129ZM38.582 0.682129C38.7461 0.354004 39.0104 0.189941 39.375 0.189941C39.7396 0.189941 40.0039 0.354004 40.168 0.682129L41.9453 4.2915L45.9375 4.89307C46.3021 4.92952 46.5391 5.12093 46.6484 5.46729C46.7578 5.81364 46.6849 6.11442 46.4297 6.36963L43.5312 9.18604L44.2148 13.1782C44.2695 13.5246 44.151 13.798 43.8594 13.9985C43.5677 14.2173 43.2669 14.2446 42.957 14.0806L39.375 12.2212L35.793 14.0806C35.4831 14.2629 35.1823 14.2446 34.8906 14.0259C34.599 13.8071 34.4805 13.5246 34.5352 13.1782L35.2188 9.18604L32.3203 6.36963C32.0651 6.11442 31.9922 5.81364 32.1016 5.46729C32.2109 5.12093 32.4479 4.92952 32.8125 4.89307L36.8047 4.2915L38.582 0.682129ZM54.332 0.682129C54.4961 0.354004 54.7604 0.189941 55.125 0.189941C55.4896 0.189941 55.7539 0.354004 55.918 0.682129L57.6953 4.2915L61.6875 4.89307C62.0521 4.92952 62.2891 5.12093 62.3984 5.46729C62.5078 5.81364 62.4349 6.11442 62.1797 6.36963L59.2812 9.18604L59.9648 13.1782C60.0195 13.5246 59.901 13.798 59.6094 13.9985C59.3177 14.2173 59.0169 14.2446 58.707 14.0806L55.125 12.2212L51.543 14.0806C51.2331 14.2629 50.9323 14.2446 50.6406 14.0259C50.349 13.8071 50.2305 13.5246 50.2852 13.1782L50.9688 9.18604L48.0703 6.36963C47.8151 6.11442 47.7422 5.81364 47.8516 5.46729C47.9609 5.12093 48.1979 4.92952 48.5625 4.89307L52.5547 4.2915L54.332 0.682129ZM70.082 0.682129C70.2461 0.354004 70.5104 0.189941 70.875 0.189941C71.2396 0.189941 71.5039 0.354004 71.668 0.682129L73.4453 4.2915L77.4375 4.89307C77.8021 4.92952 78.0391 5.12093 78.1484 5.46729C78.2578 5.81364 78.1849 6.11442 77.9297 6.36963L75.0312 9.18604L75.7148 13.1782C75.7695 13.5246 75.651 13.798 75.3594 13.9985C75.0677 14.2173 74.7669 14.2446 74.457 14.0806L70.875 12.2212L67.293 14.0806C66.9831 14.2629 66.6823 14.2446 66.3906 14.0259C66.099 13.8071 65.9805 13.5246 66.0352 13.1782L66.7188 9.18604L63.8203 6.36963C63.5651 6.11442 63.4922 5.81364 63.6016 5.46729C63.7109 5.12093 63.9479 4.92952 64.3125 4.89307L68.3047 4.2915L70.082 0.682129Z" fill="#FFD25D"/>
</svg>
