<svg width="505" height="554" viewBox="0 0 505 554" fill="none" xmlns="http://www.w3.org/2000/svg">
<path d="M173.285 45.2471C208.682 -15.0824 295.905 -15.0824 331.3 45.2471L332.586 47.4382C348.918 75.27 378.684 92.4571 410.952 92.6831L413.495 92.7008C483.44 93.1906 527.051 168.727 492.501 229.546L491.246 231.755C475.307 259.813 475.307 294.188 491.246 322.245L492.501 324.453C527.051 385.274 483.44 460.809 413.495 461.299L410.952 461.316C378.684 461.543 348.918 478.731 332.586 506.561L331.3 508.752C295.905 569.083 208.682 569.083 173.285 508.752L172 506.561C155.67 478.731 125.901 461.543 93.6336 461.316L91.0932 461.299C21.1479 460.809 -22.463 385.274 12.0853 324.453L13.3401 322.245C29.2784 294.188 29.2784 259.813 13.3401 231.755L12.0853 229.546C-22.463 168.727 21.1479 93.1906 91.0932 92.7008L93.6336 92.6831C125.902 92.4571 155.67 75.27 172 47.4382L173.285 45.2471Z" fill="#1E3A5F"/>
<path d="M186.685 74.6069C217.669 21.7977 294.019 21.7977 325.002 74.6069L326.127 76.5248C340.423 100.887 366.479 115.932 394.725 116.13L396.951 116.145C458.177 116.574 496.352 182.694 466.108 235.932L465.01 237.866C451.058 262.426 451.058 292.516 465.01 317.076L466.108 319.008C496.352 372.248 458.177 438.367 396.951 438.796L394.725 438.811C366.479 439.01 340.423 454.055 326.127 478.416L325.002 480.334C294.019 533.144 217.669 533.144 186.685 480.334L185.559 478.416C171.265 454.055 145.207 439.01 116.962 438.811L114.738 438.796C53.5117 438.367 15.3371 372.248 45.5788 319.008L46.6772 317.076C60.6287 292.516 60.6287 262.426 46.6772 237.866L45.5788 235.932C15.3371 182.694 53.5117 116.574 114.738 116.145L116.962 116.13C145.207 115.932 171.265 100.887 185.559 76.5248L186.685 74.6069Z" fill="url(#paint0_linear_2198_1258)"/>
<defs>
<linearGradient id="paint0_linear_2198_1258" x1="255.844" y1="35" x2="255.844" y2="519.941" gradientUnits="userSpaceOnUse">
<stop stop-color="#254F88"/>
<stop offset="1" stop-color="#091422"/>
</linearGradient>
</defs>
</svg>
